<?xml version="1.0" encoding="utf-8"?>
<!-- Generator: Adobe Illustrator 21.1.0, SVG Export Plug-In . SVG Version: 6.00 Build 0)  -->
<svg version="1.1" id="Ebene_1" xmlns="http://www.w3.org/2000/svg" xmlns:xlink="http://www.w3.org/1999/xlink" x="0px" y="0px"
	 width="155px" height="38px" viewBox="0 0 155 38" style="enable-background:new 0 0 155 38;" xml:space="preserve">
<style type="text/css">
	.st0{fill:#FFFFFF;}
</style>
<g>
	<path class="st0" d="M9.6,24.7L9.6,24.7c-2.6,0-5.2-0.1-6.9-0.8c-0.9-0.4-1.5-0.9-2-1.6C0.2,21.5,0,20.5,0,19.2
		c0-1,0.1-2.2,0.4-3.5C0.5,15.4,2,8.4,2.1,8C2.5,6.5,3,5.3,3.6,4.3c1.1-1.7,2.6-2.9,4.6-3.5c1.7-0.6,3.9-0.8,7-0.8l0,0
		c1.7,0,3,0.1,4.2,0.4c1.3,0.3,2.4,0.7,3.1,1.4c0.5,0.5,0.8,1,1,1.7c0.1,0.3,0.1,0.7,0.1,1.1c0,0.9-0.2,1.9-0.3,2.7
		c0,0.1,0,0.2-0.1,0.3l0,0H17l0,0c0,0,0-0.2,0-0.3c0,0,0-0.3,0-0.6c0-0.5-0.2-0.9-0.8-1.3c-0.4-0.2-0.9-0.3-1.4-0.4
		C14.4,5,13.8,5,13.3,5c-1,0-1.8,0.1-2.4,0.3c-0.5,0.1-0.9,0.3-1.3,0.6C9,6.2,8.7,6.8,8.4,7.5C8.1,8.2,7.9,9,7.6,10.1L6.8,14
		c-0.3,1.3-0.5,2.2-0.5,3c0,0.5,0.1,0.9,0.2,1.2c0.2,0.5,0.7,0.9,1.3,1.2c0.6,0.2,1.4,0.3,2.5,0.3c0.7,0,1.3,0,1.9-0.1
		c1-0.1,1.6-0.4,2.1-0.9c0.6-0.5,0.9-1.3,1.2-2.5l0.1-0.4h6l0,0c0,0-0.3,1.6-0.5,2.3c-0.2,0.7-0.4,1.2-0.6,1.7
		c-0.6,1.3-1.4,2.3-2.6,3.1c-1.1,0.8-2.3,1.3-3.8,1.5c-1.2,0.2-2.5,0.2-3.9,0.2h0C10.2,24.7,9.7,24.7,9.6,24.7z"/>
</g>
<g>
	<path class="st0" d="M77,24.7L77,24.7c-2.6,0-5.2-0.1-6.9-0.8c-0.9-0.4-1.5-0.9-2-1.6c-0.5-0.8-0.7-1.8-0.7-3.1
		c0-1,0.1-2.2,0.4-3.5c0.1-0.3,1.6-7.3,1.7-7.7c0.4-1.5,0.9-2.7,1.5-3.7c1.1-1.7,2.6-2.9,4.6-3.5c1.7-0.6,3.9-0.8,7-0.8l0,0
		c1.7,0,3,0.1,4.2,0.4c1.3,0.3,2.4,0.7,3.1,1.4c0.5,0.5,0.8,1,1,1.7c0.1,0.3,0.1,0.7,0.1,1.1c0,0.9-0.2,1.9-0.3,2.7
		c0,0.1,0,0.2-0.1,0.3l0,0h-6.1l0,0c0,0,0-0.2,0-0.3c0,0,0-0.3,0-0.6c0-0.5-0.2-0.9-0.8-1.3c-0.4-0.2-0.9-0.3-1.4-0.4
		C81.8,5,81.2,5,80.7,5c-1,0-1.8,0.1-2.4,0.3c-0.5,0.1-0.9,0.3-1.3,0.6c-0.5,0.4-0.9,0.9-1.2,1.7C75.5,8.2,75.3,9,75,10.1L74.2,14
		c-0.3,1.3-0.5,2.2-0.5,3c0,0.5,0.1,0.9,0.2,1.2c0.2,0.5,0.7,0.9,1.3,1.2c0.6,0.2,1.4,0.3,2.5,0.3c0.7,0,1.3,0,1.9-0.1
		c1-0.1,1.6-0.4,2.1-0.9c0.6-0.5,0.9-1.3,1.2-2.5l0.1-0.4h6l0,0c0,0-0.3,1.6-0.5,2.3c-0.2,0.7-0.4,1.2-0.6,1.7
		c-0.6,1.3-1.4,2.3-2.6,3.1c-1.1,0.8-2.3,1.3-3.8,1.5c-1.2,0.2-2.5,0.2-3.9,0.2h0C77.6,24.7,77.1,24.7,77,24.7z"/>
</g>
<g>
	<path class="st0" d="M63.9,24.5H46.4l0,0l4.9-23c0.1-0.4,0.2-0.7,0.5-0.9c0.3-0.2,0.6-0.3,1.1-0.3h14.8c0.4,0,0.6,0.1,0.8,0.2
		c0.1,0.1,0.2,0.3,0.2,0.5l0,0c0,0.1,0,0.2,0,0.3l-0.8,3.6l-11.4,0l-1,4.8h10.7l-1,4.5H54.5l-1.2,5.7h11.7L63.9,24.5z"/>
</g>
<g>
	<path class="st0" d="M95.3,24.5h-5.8l0,0l4.9-22.9c0.1-0.5,0.3-0.8,0.6-1c0.2-0.2,0.5-0.2,0.8-0.2h3.5c0.4,0,0.6,0.1,0.8,0.3
		c0.1,0.1,0.2,0.3,0.2,0.6c0,0.1,0,0.1,0,0.2L95.3,24.5z"/>
</g>
<g>
	<path class="st0" d="M111.4,24.5H104l0,0l-5.4-12.6l0,0L108,1.6c0.6-0.6,0.9-1,1.2-1.1c0.3-0.2,0.6-0.3,1.1-0.3h4.7
		c0.2,0,0.4,0.1,0.4,0.1c0,0,0.1,0.1,0.1,0.1c0,0,0,0.1,0,0.1l0,0l0,0.1c0,0.1-0.1,0.3-0.3,0.5L105.2,12L111.4,24.5z"/>
</g>
<g>
	<path class="st0" d="M37.6,24.5L37.6,24.5L37.6,24.5l2-9.9H30l-2.1,9.9l-5.8,0l0,0c0.2-0.9,4.8-22.8,4.9-22.9
		c0.2-0.7,0.5-1,0.7-1.1c0.2-0.1,0.6-0.2,1.1-0.2l3.2,0c0.2,0,0.4,0.1,0.6,0.2c0.1,0.1,0.2,0.2,0.3,0.3c0.1,0.1,0.1,0.2,0.1,0.4
		c0,0.1,0,0.1,0,0.2c0,0.1-1.6,7.6-1.8,8.4h9.6c0.8-3.7,1.7-8.1,1.7-8.1c0.2-0.7,0.5-1,0.7-1.1c0.2-0.1,0.6-0.2,1.1-0.2h3.2
		c0.2,0,0.4,0.1,0.6,0.2c0.1,0.1,0.2,0.2,0.3,0.3c0.1,0.1,0.1,0.2,0.1,0.4c0,0.1,0,0.1,0,0.2c0,0.1-4.7,22.2-4.9,23.2l0,0L37.6,24.5
		z"/>
</g>
<g>
	<path class="st0" d="M128.6,4.9c0.4,0.1,0.8,0.3,1,0.7l0,0c0.1,0.2,0.2,0.5,0.2,0.9l0,0c0,0.4-0.1,0.8-0.2,1.3l0,0
		c-0.1,0.6-0.3,1.2-0.5,1.6l0,0c-0.2,0.5-0.5,0.8-0.9,1.1l0,0c-0.8,0.6-2,1-4.3,1.5l0,0c-2.9,0.6-4.9,1.2-6.4,1.9l0,0
		c-1.4,0.7-2.2,1.6-2.9,2.9l0,0c-0.4,0.9-0.7,2-1,3.4l0,0l-0.8,4.2h18.9l0.9-4.2h-13.2c0,0,0.2-1,0.4-1.4l0,0
		c0.2-0.5,0.5-0.8,0.9-1.1l0,0c0.4-0.3,0.8-0.4,1.3-0.6l0,0c1.1-0.3,2.6-0.5,4.8-1.1l0,0c2.7-0.7,4.5-1.5,5.8-2.7l0,0
		c1.3-1.2,2.1-3,2.7-5.7l0,0c0.2-1,0.3-2,0.3-2.8l0,0c0-1.1-0.2-1.9-0.6-2.5l0,0c-0.4-0.6-0.9-1.1-1.6-1.4l0,0
		c-1.4-0.7-3.5-0.8-5.9-0.8l0,0c-3.1,0-5.6,0.3-7.4,1.4l0,0c-1.8,1.1-3.1,3.1-3.8,6.5l0,0l-0.2,0.9h5.8l0.2-1c0.2-1,0.4-1.7,0.8-2.1
		l0,0c0.4-0.5,0.9-0.7,1.7-0.8l0,0c0.5-0.1,1.1-0.1,1.8-0.1l0,0c0.1,0,0.2,0,0.3,0l0,0C127.6,4.8,128.1,4.8,128.6,4.9L128.6,4.9z"/>
</g>
<g>
	<path class="st0" d="M144.5,2.6c-0.7,0.7-6.3,6.6-8.6,9c-0.5,0.5-1,1-1.2,1.5c-0.2,0.3-0.4,1.2-0.5,1.9c-0.2,1.4-0.4,2.6-0.5,3.1
		c0,0.1,0,0.3,0,0.4c0,0.4,0.2,0.7,0.4,0.9c0.2,0.2,0.5,0.3,0.9,0.3c0.3,0,11.1,0,11.1,0l-1,4.8l5.9-0.6l0.9-4.3h2.1l0.9-4.3h-2.1
		c0,0,2.1-9.8,2.2-10.2c0.7-4-0.9-5.1-4.6-5.1C149.3,0,147.1-0.2,144.5,2.6z M146.9,15.3h-8.4l10-10.4h0.6L146.9,15.3z"/>
</g>
<g>
	<path class="st0" d="M131.3,38L131.3,38c-3.8,0-7.4-1-10.5-2.9c-3-1.9-4.8-4.1-5.7-5.3l-1.1,2.9c-0.1,0.3-0.4,0.4-0.7,0.4
		c-0.3-0.1-0.5-0.3-0.5-0.6l-0.1-5.6l0,0c0-0.2,0.1-0.3,0.2-0.4c0.1-0.1,0.3-0.2,0.4-0.2l5.7,0l0,0c0.3,0,0.5,0.2,0.6,0.5
		c0,0,0,0.1,0,0.1c0,0.2-0.2,0.5-0.4,0.6l-2.8,1.1c2.4,2.2,7.4,5.7,14.5,5.7c0.6,0,1.2,0,1.8-0.1c3-0.3,6-1,8.7-2.1
		c2.4-1,4.4-2.2,6-3.7l-2.9-0.8c-0.3-0.1-0.4-0.3-0.4-0.6c0,0,0,0,0-0.1c0-0.3,0.3-0.5,0.5-0.5l5.6-0.5c0,0,0,0,0.1,0
		c0.1,0,0.3,0.1,0.4,0.1c0.1,0.1,0.2,0.3,0.2,0.4c0.5,5.5,0.5,5.5,0.5,5.5c0,0.3-0.2,0.5-0.4,0.6c-0.1,0-0.1,0-0.2,0
		c-0.2,0-0.4-0.1-0.5-0.3l-1.3-2.6c-1.1,1.5-3,3.5-5.9,5.3c-3,1.8-6.3,2.9-9.9,3.2l-0.4,0v0C132.4,38,131.8,38,131.3,38z"/>
</g>
</svg>
