<!DOCTYPE svg PUBLIC "-//W3C//DTD SVG 1.1//EN" "http://www.w3.org/Graphics/SVG/1.1/DTD/svg11.dtd">
<!-- Uploaded to: SVG Repo, www.svgrepo.com, Transformed by: SVG Repo Mixer Tools -->
<svg width="800px" height="800px" viewBox="0 0 1024 1024" class="icon" version="1.1" xmlns="http://www.w3.org/2000/svg" fill="#000000">
<g id="SVGRepo_bgCarrier" stroke-width="0"/>
<g id="SVGRepo_tracerCarrier" stroke-linecap="round" stroke-linejoin="round"/>
<g id="SVGRepo_iconCarrier">
<path d="M513.2 56.6c-164 0-296.9 131-296.9 292.6 0 50.2 12.8 97.4 35.4 138.6 37.7 69 166.6 266.1 228.3 359.6 29.8 27.9 59 6.4 66.5 0 61.3-93.3 189.3-289.6 227.3-357.6 23.3-41.7 36.5-89.7 36.5-140.6-0.2-161.6-133.1-292.6-297.1-292.6z m214.2 413.6c-36.1 61-163.5 264.3-202.7 326.8-8.2 2.9-15.9 2.5-23 0-38.9-62.3-165.5-264.9-201.8-325.2-21.7-36.1-34.2-78.2-34.2-123.1 0-134 110.8-242.7 247.4-242.7s247.4 108.6 247.4 242.7c0.1 44.3-12 85.8-33.1 121.5z" fill="#063773"/>
<path d="M513.2 477.7c-70.8 0-128.4-57.6-128.4-128.4s57.6-128.4 128.4-128.4 128.4 57.6 128.4 128.4S584 477.7 513.2 477.7z m0-208.7c-44.3 0-80.3 36-80.3 80.3s36 80.3 80.3 80.3 80.3-36 80.3-80.3-36-80.3-80.3-80.3zM511.9 969.6c-163.4 0-286.6-59.6-286.6-138.7 0-46.1 42.4-87.2 116.4-112.7 11.5-4 24.1 2.1 28 13.6 4 11.5-2.1 24.1-13.6 28-53.5 18.5-86.7 45.7-86.7 71.1 0 44.7 99.6 94.6 242.5 94.6s242.5-49.9 242.5-94.6c0-25.4-33.3-52.6-86.8-71.1-11.5-4-17.6-16.5-13.6-28 4-11.5 16.5-17.6 28-13.6 74 25.5 116.5 66.7 116.5 112.8 0 78.9-123.2 138.6-286.6 138.6z" fill="#063773"/>
</g>
</svg>